<svg width="280" height="17" viewBox="0 0 280 17" fill="none" xmlns="http://www.w3.org/2000/svg">
<path d="M6.048 13.18C5.04 13.18 4.14 12.928 3.348 12.424C2.556 11.908 1.932 11.164 1.476 10.192C1.02 9.208 0.792 8.044 0.792 6.7C0.792 5.356 1.02 4.198 1.476 3.226C1.932 2.242 2.556 1.498 3.348 0.993999C4.14 0.477999 5.04 0.219999 6.048 0.219999C7.056 0.219999 7.956 0.477999 8.748 0.993999C9.552 1.498 10.182 2.242 10.638 3.226C11.094 4.198 11.322 5.356 11.322 6.7C11.322 8.044 11.094 9.208 10.638 10.192C10.182 11.164 9.552 11.908 8.748 12.424C7.956 12.928 7.056 13.18 6.048 13.18ZM6.048 11.146C6.948 11.146 7.656 10.774 8.172 10.03C8.7 9.286 8.964 8.176 8.964 6.7C8.964 5.224 8.7 4.114 8.172 3.37C7.656 2.626 6.948 2.254 6.048 2.254C5.16 2.254 4.452 2.626 3.924 3.37C3.408 4.114 3.15 5.224 3.15 6.7C3.15 8.176 3.408 9.286 3.924 10.03C4.452 10.774 5.16 11.146 6.048 11.146ZM17.1714 0.399999V13H14.8314V2.362H12.1674V0.399999H17.1714ZM21.0749 13.126C20.6669 13.126 20.3189 12.988 20.0309 12.712C19.7429 12.424 19.5989 12.064 19.5989 11.632C19.5989 11.188 19.7369 10.828 20.0129 10.552C20.3009 10.276 20.6549 10.138 21.0749 10.138C21.4949 10.138 21.8429 10.276 22.1189 10.552C22.4069 10.828 22.5509 11.188 22.5509 11.632C22.5509 12.064 22.4069 12.424 22.1189 12.712C21.8309 12.988 21.4829 13.126 21.0749 13.126Z" fill="#4985FF"/>
<path d="M30.03 0.399999H32.334V9.346L39.102 0.399999H41.28V13H38.976V4.072L32.208 13H30.03V0.399999ZM48.9348 13.126C47.9388 13.126 47.0448 12.916 46.2528 12.496C45.4608 12.076 44.8428 11.494 44.3988 10.75C43.9548 9.994 43.7328 9.142 43.7328 8.194C43.7328 7.246 43.9548 6.4 44.3988 5.656C44.8428 4.912 45.4548 4.33 46.2348 3.91C47.0268 3.49 47.9268 3.28 48.9348 3.28C49.8828 3.28 50.7108 3.472 51.4188 3.856C52.1388 4.24 52.6788 4.792 53.0388 5.512L51.3108 6.52C51.0348 6.076 50.6868 5.746 50.2668 5.53C49.8588 5.302 49.4088 5.188 48.9168 5.188C48.0768 5.188 47.3808 5.464 46.8288 6.016C46.2768 6.556 46.0008 7.282 46.0008 8.194C46.0008 9.106 46.2708 9.838 46.8108 10.39C47.3628 10.93 48.0648 11.2 48.9168 11.2C49.4088 11.2 49.8588 11.092 50.2668 10.876C50.6868 10.648 51.0348 10.312 51.3108 9.868L53.0388 10.876C52.6668 11.596 52.1208 12.154 51.4008 12.55C50.6928 12.934 49.8708 13.126 48.9348 13.126ZM59.2532 13.126C58.2572 13.126 57.3632 12.916 56.5712 12.496C55.7792 12.076 55.1612 11.494 54.7172 10.75C54.2732 9.994 54.0512 9.142 54.0512 8.194C54.0512 7.246 54.2732 6.4 54.7172 5.656C55.1612 4.912 55.7732 4.33 56.5532 3.91C57.3452 3.49 58.2452 3.28 59.2532 3.28C60.2012 3.28 61.0292 3.472 61.7372 3.856C62.4572 4.24 62.9972 4.792 63.3572 5.512L61.6292 6.52C61.3532 6.076 61.0052 5.746 60.5852 5.53C60.1772 5.302 59.7272 5.188 59.2352 5.188C58.3952 5.188 57.6992 5.464 57.1472 6.016C56.5952 6.556 56.3192 7.282 56.3192 8.194C56.3192 9.106 56.5892 9.838 57.1292 10.39C57.6812 10.93 58.3832 11.2 59.2352 11.2C59.7272 11.2 60.1772 11.092 60.5852 10.876C61.0052 10.648 61.3532 10.312 61.6292 9.868L63.3572 10.876C62.9852 11.596 62.4392 12.154 61.7192 12.55C61.0112 12.934 60.1892 13.126 59.2532 13.126ZM73.8392 3.388V13H71.5892V5.296H67.9892L67.8992 7.204C67.8392 8.476 67.7192 9.544 67.5392 10.408C67.3712 11.26 67.0772 11.938 66.6572 12.442C66.2492 12.934 65.6852 13.18 64.9652 13.18C64.6292 13.18 64.2152 13.114 63.7232 12.982L63.8312 11.092C63.9992 11.128 64.1432 11.146 64.2632 11.146C64.7192 11.146 65.0612 10.966 65.2892 10.606C65.5172 10.234 65.6612 9.796 65.7212 9.292C65.7932 8.776 65.8532 8.044 65.9012 7.096L66.0632 3.388H73.8392ZM85.8694 8.248C85.8694 8.404 85.8574 8.626 85.8334 8.914H78.2914C78.4234 9.622 78.7654 10.186 79.3174 10.606C79.8814 11.014 80.5774 11.218 81.4054 11.218C82.4614 11.218 83.3314 10.87 84.0154 10.174L85.2214 11.56C84.7894 12.076 84.2434 12.466 83.5834 12.73C82.9234 12.994 82.1794 13.126 81.3514 13.126C80.2954 13.126 79.3654 12.916 78.5614 12.496C77.7574 12.076 77.1334 11.494 76.6894 10.75C76.2574 9.994 76.0414 9.142 76.0414 8.194C76.0414 7.258 76.2514 6.418 76.6714 5.674C77.1034 4.918 77.6974 4.33 78.4534 3.91C79.2094 3.49 80.0614 3.28 81.0094 3.28C81.9454 3.28 82.7794 3.49 83.5114 3.91C84.2554 4.318 84.8314 4.9 85.2394 5.656C85.6594 6.4 85.8694 7.264 85.8694 8.248ZM81.0094 5.08C80.2894 5.08 79.6774 5.296 79.1734 5.728C78.6814 6.148 78.3814 6.712 78.2734 7.42H83.7274C83.6314 6.724 83.3374 6.16 82.8454 5.728C82.3534 5.296 81.7414 5.08 81.0094 5.08ZM98.4673 11.092V15.142H96.3613V13H88.9453V15.142H86.8573V11.092H87.3073C87.9193 11.068 88.3333 10.678 88.5493 9.922C88.7773 9.154 88.9273 8.074 88.9993 6.682L89.1253 3.388H97.0453V11.092H98.4673ZM91.0513 6.844C91.0033 7.948 90.9133 8.848 90.7813 9.544C90.6493 10.24 90.4093 10.756 90.0613 11.092H94.7953V5.296H91.1053L91.0513 6.844ZM104.761 13.126C103.789 13.126 102.913 12.916 102.133 12.496C101.353 12.076 100.741 11.494 100.297 10.75C99.8648 9.994 99.6488 9.142 99.6488 8.194C99.6488 7.246 99.8648 6.4 100.297 5.656C100.741 4.912 101.353 4.33 102.133 3.91C102.913 3.49 103.789 3.28 104.761 3.28C105.745 3.28 106.627 3.49 107.407 3.91C108.187 4.33 108.793 4.912 109.225 5.656C109.669 6.4 109.891 7.246 109.891 8.194C109.891 9.142 109.669 9.994 109.225 10.75C108.793 11.494 108.187 12.076 107.407 12.496C106.627 12.916 105.745 13.126 104.761 13.126ZM104.761 11.2C105.589 11.2 106.273 10.924 106.813 10.372C107.353 9.82 107.623 9.094 107.623 8.194C107.623 7.294 107.353 6.568 106.813 6.016C106.273 5.464 105.589 5.188 104.761 5.188C103.933 5.188 103.249 5.464 102.709 6.016C102.181 6.568 101.917 7.294 101.917 8.194C101.917 9.094 102.181 9.82 102.709 10.372C103.249 10.924 103.933 11.2 104.761 11.2ZM119.08 7.996C120.268 8.356 120.862 9.124 120.862 10.3C120.862 11.164 120.538 11.83 119.89 12.298C119.242 12.766 118.282 13 117.01 13H112.114V3.388H116.812C117.988 3.388 118.906 3.604 119.566 4.036C120.226 4.468 120.556 5.08 120.556 5.872C120.556 6.364 120.424 6.79 120.16 7.15C119.908 7.51 119.548 7.792 119.08 7.996ZM114.256 7.402H116.614C117.778 7.402 118.36 7 118.36 6.196C118.36 5.416 117.778 5.026 116.614 5.026H114.256V7.402ZM116.83 11.362C118.066 11.362 118.684 10.96 118.684 10.156C118.684 9.736 118.54 9.424 118.252 9.22C117.964 9.004 117.514 8.896 116.902 8.896H114.256V11.362H116.83ZM126.84 3.28C128.256 3.28 129.336 3.622 130.08 4.306C130.836 4.978 131.214 5.998 131.214 7.366V13H129.09V11.83C128.814 12.25 128.418 12.574 127.902 12.802C127.398 13.018 126.786 13.126 126.066 13.126C125.346 13.126 124.716 13.006 124.176 12.766C123.636 12.514 123.216 12.172 122.916 11.74C122.628 11.296 122.484 10.798 122.484 10.246C122.484 9.382 122.802 8.692 123.438 8.176C124.086 7.648 125.1 7.384 126.48 7.384H128.964V7.24C128.964 6.568 128.76 6.052 128.352 5.692C127.956 5.332 127.362 5.152 126.57 5.152C126.03 5.152 125.496 5.236 124.968 5.404C124.452 5.572 124.014 5.806 123.654 6.106L122.772 4.468C123.276 4.084 123.882 3.79 124.59 3.586C125.298 3.382 126.048 3.28 126.84 3.28ZM126.534 11.488C127.098 11.488 127.596 11.362 128.028 11.11C128.472 10.846 128.784 10.474 128.964 9.994V8.878H126.642C125.346 8.878 124.698 9.304 124.698 10.156C124.698 10.564 124.86 10.888 125.184 11.128C125.508 11.368 125.958 11.488 126.534 11.488ZM133.998 3.388H136.248V7.294H141.09V3.388H143.34V13H141.09V9.202H136.248V13H133.998V3.388ZM146.356 3.388H148.606V9.724L153.916 3.388H155.968V13H153.718V6.664L148.426 13H146.356V3.388ZM167.994 8.248C167.994 8.404 167.982 8.626 167.958 8.914H160.416C160.548 9.622 160.89 10.186 161.442 10.606C162.006 11.014 162.702 11.218 163.53 11.218C164.586 11.218 165.456 10.87 166.14 10.174L167.346 11.56C166.914 12.076 166.368 12.466 165.708 12.73C165.048 12.994 164.304 13.126 163.476 13.126C162.42 13.126 161.49 12.916 160.686 12.496C159.882 12.076 159.258 11.494 158.814 10.75C158.382 9.994 158.166 9.142 158.166 8.194C158.166 7.258 158.376 6.418 158.796 5.674C159.228 4.918 159.822 4.33 160.578 3.91C161.334 3.49 162.186 3.28 163.134 3.28C164.07 3.28 164.904 3.49 165.636 3.91C166.38 4.318 166.956 4.9 167.364 5.656C167.784 6.4 167.994 7.264 167.994 8.248ZM163.134 5.08C162.414 5.08 161.802 5.296 161.298 5.728C160.806 6.148 160.506 6.712 160.398 7.42H165.852C165.756 6.724 165.462 6.16 164.97 5.728C164.478 5.296 163.866 5.08 163.134 5.08ZM175.43 3.388H177.68V9.724L182.99 3.388H185.042V13H182.792V6.664L177.5 13H175.43V3.388ZM202.115 3.388L197.615 13.774C197.195 14.818 196.685 15.55 196.085 15.97C195.485 16.402 194.759 16.618 193.907 16.618C193.427 16.618 192.953 16.54 192.485 16.384C192.017 16.228 191.633 16.012 191.333 15.736L192.233 14.08C192.449 14.284 192.701 14.446 192.989 14.566C193.289 14.686 193.589 14.746 193.889 14.746C194.285 14.746 194.609 14.644 194.861 14.44C195.125 14.236 195.365 13.894 195.581 13.414L195.743 13.036L191.549 3.388H193.889L196.913 10.498L199.955 3.388H202.115ZM212.894 3.388V13H210.662V5.296H205.928V13H203.678V3.388H212.894ZM219.512 3.28C220.928 3.28 222.008 3.622 222.752 4.306C223.508 4.978 223.886 5.998 223.886 7.366V13H221.762V11.83C221.486 12.25 221.09 12.574 220.574 12.802C220.07 13.018 219.458 13.126 218.738 13.126C218.018 13.126 217.388 13.006 216.848 12.766C216.308 12.514 215.888 12.172 215.588 11.74C215.3 11.296 215.156 10.798 215.156 10.246C215.156 9.382 215.474 8.692 216.11 8.176C216.758 7.648 217.772 7.384 219.152 7.384H221.636V7.24C221.636 6.568 221.432 6.052 221.024 5.692C220.628 5.332 220.034 5.152 219.242 5.152C218.702 5.152 218.168 5.236 217.64 5.404C217.124 5.572 216.686 5.806 216.326 6.106L215.444 4.468C215.948 4.084 216.554 3.79 217.262 3.586C217.97 3.382 218.72 3.28 219.512 3.28ZM219.206 11.488C219.77 11.488 220.268 11.362 220.7 11.11C221.144 10.846 221.456 10.474 221.636 9.994V8.878H219.314C218.018 8.878 217.37 9.304 217.37 10.156C217.37 10.564 217.532 10.888 217.856 11.128C218.18 11.368 218.63 11.488 219.206 11.488ZM230.666 9.148H228.92V13H226.67V3.388H228.92V7.276H230.72L233.564 3.388H235.976L232.484 8.014L236.21 13H233.564L230.666 9.148ZM241.765 13.126C240.793 13.126 239.917 12.916 239.137 12.496C238.357 12.076 237.745 11.494 237.301 10.75C236.869 9.994 236.653 9.142 236.653 8.194C236.653 7.246 236.869 6.4 237.301 5.656C237.745 4.912 238.357 4.33 239.137 3.91C239.917 3.49 240.793 3.28 241.765 3.28C242.749 3.28 243.631 3.49 244.411 3.91C245.191 4.33 245.797 4.912 246.229 5.656C246.673 6.4 246.895 7.246 246.895 8.194C246.895 9.142 246.673 9.994 246.229 10.75C245.797 11.494 245.191 12.076 244.411 12.496C243.631 12.916 242.749 13.126 241.765 13.126ZM241.765 11.2C242.593 11.2 243.277 10.924 243.817 10.372C244.357 9.82 244.627 9.094 244.627 8.194C244.627 7.294 244.357 6.568 243.817 6.016C243.277 5.464 242.593 5.188 241.765 5.188C240.937 5.188 240.253 5.464 239.713 6.016C239.185 6.568 238.921 7.294 238.921 8.194C238.921 9.094 239.185 9.82 239.713 10.372C240.253 10.924 240.937 11.2 241.765 11.2ZM256.083 7.996C257.271 8.356 257.865 9.124 257.865 10.3C257.865 11.164 257.541 11.83 256.893 12.298C256.245 12.766 255.285 13 254.013 13H249.117V3.388H253.815C254.991 3.388 255.909 3.604 256.569 4.036C257.229 4.468 257.559 5.08 257.559 5.872C257.559 6.364 257.427 6.79 257.163 7.15C256.911 7.51 256.551 7.792 256.083 7.996ZM251.259 7.402H253.617C254.781 7.402 255.363 7 255.363 6.196C255.363 5.416 254.781 5.026 253.617 5.026H251.259V7.402ZM253.833 11.362C255.069 11.362 255.687 10.96 255.687 10.156C255.687 9.736 255.543 9.424 255.255 9.22C254.967 9.004 254.517 8.896 253.905 8.896H251.259V11.362H253.833ZM264.258 9.148H262.512V13H260.262V3.388H262.512V7.276H264.312L267.156 3.388H269.568L266.076 8.014L269.802 13H267.156L264.258 9.148ZM274.795 3.28C276.211 3.28 277.291 3.622 278.035 4.306C278.791 4.978 279.169 5.998 279.169 7.366V13H277.045V11.83C276.769 12.25 276.373 12.574 275.857 12.802C275.353 13.018 274.741 13.126 274.021 13.126C273.301 13.126 272.671 13.006 272.131 12.766C271.591 12.514 271.171 12.172 270.871 11.74C270.583 11.296 270.439 10.798 270.439 10.246C270.439 9.382 270.757 8.692 271.393 8.176C272.041 7.648 273.055 7.384 274.435 7.384H276.919V7.24C276.919 6.568 276.715 6.052 276.307 5.692C275.911 5.332 275.317 5.152 274.525 5.152C273.985 5.152 273.451 5.236 272.923 5.404C272.407 5.572 271.969 5.806 271.609 6.106L270.727 4.468C271.231 4.084 271.837 3.79 272.545 3.586C273.253 3.382 274.003 3.28 274.795 3.28ZM274.489 11.488C275.053 11.488 275.551 11.362 275.983 11.11C276.427 10.846 276.739 10.474 276.919 9.994V8.878H274.597C273.301 8.878 272.653 9.304 272.653 10.156C272.653 10.564 272.815 10.888 273.139 11.128C273.463 11.368 273.913 11.488 274.489 11.488Z" fill="black"/>
</svg>
