<svg width="353" height="141" viewBox="0 0 353 141" fill="none" xmlns="http://www.w3.org/2000/svg">
<circle cx="55" cy="55" r="54.5" stroke="#E0E0E0"/>
<circle cx="55" cy="55" r="44.5" stroke="#4985FF"/>
<path d="M74.3326 35H44.3327C43.9645 35 43.666 35.2985 43.666 35.6667V45.6666H44.9993V36.3333H73.6659V72.9999C73.6724 73.3505 73.4019 73.6442 73.0519 73.6666C72.9946 73.6666 72.9373 73.6619 72.8799 73.6606C72.7619 73.6573 72.6439 73.6546 72.5279 73.6426C72.5179 73.6426 72.5086 73.6426 72.4986 73.6386C70.3213 73.4006 68.6014 71.6823 68.3613 69.5053C68.3613 69.4959 68.358 69.4859 68.3566 69.4766C68.3405 69.3182 68.3325 69.1591 68.3326 68.9999V67.6666C68.3326 67.2984 68.0341 66.9999 67.666 66.9999H44.9993V55H43.666V66.9999H38.3327C37.9645 66.9999 37.666 67.2984 37.666 67.6666V68.9999C37.6697 72.3121 40.3538 74.9963 43.666 74.9999H73.0659C74.1478 74.9716 75.0076 74.0821 74.9993 72.9999V35.6667C74.9993 35.2985 74.7008 35 74.3326 35ZM43.666 73.6666C41.0899 73.6637 39.0023 71.576 38.9993 68.9999V68.3333H66.9993V68.9999C67.0002 69.2198 67.0129 69.4394 67.0373 69.6579C67.0433 69.7159 67.0546 69.7719 67.0626 69.8293C67.0846 69.9906 67.1113 70.1513 67.1466 70.3093C67.1586 70.3646 67.174 70.4193 67.188 70.4746C67.2286 70.6353 67.2746 70.7933 67.328 70.9493C67.3433 70.9939 67.3593 71.0379 67.376 71.0826C67.4366 71.2479 67.5053 71.4093 67.5806 71.5686C67.5966 71.6013 67.6113 71.6353 67.6273 71.6653C67.7109 71.8342 67.8026 71.9983 67.9026 72.1579C67.916 72.1793 67.928 72.2013 67.9413 72.2246C68.05 72.3948 68.1673 72.5595 68.2926 72.7179L68.314 72.7466C68.4595 72.9293 68.6153 73.1036 68.7806 73.2686C68.9242 73.4108 69.073 73.5442 69.2273 73.6686L43.666 73.6666Z" fill="#4985FF"/>
<path d="M57 53.6667C57.1768 53.6667 57.3463 53.5963 57.4713 53.4713L60.1379 50.8047C60.3982 50.5443 60.3982 50.1223 60.1379 49.862L57.4713 47.1953C57.3463 47.0703 57.1768 47 57 47H38.3333C36.4924 47 35 48.4924 35 50.3333C35 52.1742 36.4924 53.6667 38.3333 53.6667H57ZM56.828 48.4373L58.7239 50.3333L56.828 52.2293L56.354 50.3333L56.828 48.4373ZM40.3333 48.3333H55.48L55.1466 49.6667H41.6667V51H55.1466L55.48 52.3333H40.3333V48.3333ZM36.3333 50.3333C36.3333 49.2287 37.2287 48.3333 38.3333 48.3333H39V52.3333H38.3333C37.2287 52.3333 36.3333 51.4379 36.3333 50.3333Z" fill="#4985FF"/>
<path d="M50.3325 63.6666H70.3325C70.7007 63.6666 70.9992 63.3681 70.9992 62.9999V43C70.9991 42.6318 70.7006 42.3334 70.3323 42.3335C70.1556 42.3335 69.9862 42.4037 69.8612 42.5287L49.8612 62.5286C49.6009 62.789 49.601 63.2111 49.8614 63.4714C49.9864 63.5964 50.1558 63.6666 50.3325 63.6666ZM69.6658 44.6093V46.3333H68.3325V47.6666H69.6658V49H68.3325V50.3333H69.6658V51.6666H68.3325V53H69.6658V54.3333H68.3325V55.6666H69.6658V57H68.3325V58.3333H69.6658V59.6666H68.3325V60.9999H69.6658V62.3333H68.3325V60.9999H66.9992V62.3333H65.6658V60.9999H64.3325V62.3333H62.9992V60.9999H61.6659V62.3333H60.3325V60.9999H58.9992V62.3333H57.6659V60.9999H56.3325V62.3333H54.9992V60.9999H53.6659V62.3333H51.9419L69.6658 44.6093Z" fill="#4985FF"/>
<path d="M59.9907 59.6667H66.3341C66.7022 59.6667 67.0007 59.3682 67.0007 59V52.6567C67.0007 52.2886 66.7022 51.9902 66.3339 51.9902C66.1572 51.9902 65.9877 52.0605 65.8627 52.1854L59.5194 58.5287C59.2591 58.7891 59.2592 59.2112 59.5196 59.4715C59.6446 59.5965 59.814 59.6667 59.9907 59.6667ZM65.6674 54.2667V58.3334H61.6007L65.6674 54.2667Z" fill="#4985FF"/>
<path d="M65.6673 39H52.334V40.3333H65.6673V39Z" fill="#4985FF"/>
<path d="M67.6673 41.6665H50.334V42.9998H67.6673V41.6665Z" fill="#4985FF"/>
<path d="M50.334 55.6665H46.334V56.9998H50.334V55.6665Z" fill="#4985FF"/>
<path d="M49.0006 58.3335H46.334V59.6668H49.0006V58.3335Z" fill="#4985FF"/>
<path d="M134.56 63.18C133.288 63.18 132.136 62.904 131.104 62.352C130.084 61.788 129.28 61.014 128.692 60.03C128.116 59.046 127.828 57.936 127.828 56.7C127.828 55.464 128.122 54.354 128.71 53.37C129.298 52.386 130.102 51.618 131.122 51.066C132.154 50.502 133.306 50.22 134.578 50.22C135.61 50.22 136.552 50.4 137.404 50.76C138.256 51.12 138.976 51.642 139.564 52.326L138.052 53.748C137.14 52.764 136.018 52.272 134.686 52.272C133.822 52.272 133.048 52.464 132.364 52.848C131.68 53.22 131.146 53.742 130.762 54.414C130.378 55.086 130.186 55.848 130.186 56.7C130.186 57.552 130.378 58.314 130.762 58.986C131.146 59.658 131.68 60.186 132.364 60.57C133.048 60.942 133.822 61.128 134.686 61.128C136.018 61.128 137.14 60.63 138.052 59.634L139.564 61.074C138.976 61.758 138.25 62.28 137.386 62.64C136.534 63 135.592 63.18 134.56 63.18ZM145.417 63.126C144.445 63.126 143.569 62.916 142.789 62.496C142.009 62.076 141.397 61.494 140.953 60.75C140.521 59.994 140.305 59.142 140.305 58.194C140.305 57.246 140.521 56.4 140.953 55.656C141.397 54.912 142.009 54.33 142.789 53.91C143.569 53.49 144.445 53.28 145.417 53.28C146.401 53.28 147.283 53.49 148.063 53.91C148.843 54.33 149.449 54.912 149.881 55.656C150.325 56.4 150.547 57.246 150.547 58.194C150.547 59.142 150.325 59.994 149.881 60.75C149.449 61.494 148.843 62.076 148.063 62.496C147.283 62.916 146.401 63.126 145.417 63.126ZM145.417 61.2C146.245 61.2 146.929 60.924 147.469 60.372C148.009 59.82 148.279 59.094 148.279 58.194C148.279 57.294 148.009 56.568 147.469 56.016C146.929 55.464 146.245 55.188 145.417 55.188C144.589 55.188 143.905 55.464 143.365 56.016C142.837 56.568 142.573 57.294 142.573 58.194C142.573 59.094 142.837 59.82 143.365 60.372C143.905 60.924 144.589 61.2 145.417 61.2ZM158.371 57.996C158.971 58.164 159.433 58.44 159.757 58.824C160.093 59.196 160.261 59.646 160.261 60.174C160.261 60.762 160.063 61.284 159.667 61.74C159.271 62.184 158.725 62.532 158.029 62.784C157.333 63.036 156.541 63.162 155.653 63.162C154.909 63.162 154.183 63.078 153.475 62.91C152.767 62.73 152.125 62.478 151.549 62.154L152.197 60.48C152.665 60.744 153.193 60.948 153.781 61.092C154.369 61.236 154.957 61.308 155.545 61.308C156.301 61.308 156.889 61.194 157.309 60.966C157.741 60.726 157.957 60.402 157.957 59.994C157.957 59.622 157.789 59.334 157.453 59.13C157.129 58.926 156.667 58.824 156.067 58.824H154.195V57.312H155.887C156.451 57.312 156.889 57.216 157.201 57.024C157.525 56.832 157.687 56.562 157.687 56.214C157.687 55.866 157.495 55.59 157.111 55.386C156.727 55.182 156.199 55.08 155.527 55.08C154.567 55.08 153.553 55.314 152.485 55.782L151.909 54.126C153.169 53.538 154.441 53.244 155.725 53.244C156.541 53.244 157.273 53.358 157.921 53.586C158.569 53.802 159.073 54.114 159.433 54.522C159.805 54.918 159.991 55.374 159.991 55.89C159.991 56.358 159.847 56.778 159.559 57.15C159.271 57.51 158.875 57.792 158.371 57.996ZM172.856 61.092V65.142H170.75V63H163.334V65.142H161.246V61.092H161.696C162.308 61.068 162.722 60.678 162.938 59.922C163.166 59.154 163.316 58.074 163.388 56.682L163.514 53.388H171.434V61.092H172.856ZM165.44 56.844C165.392 57.948 165.302 58.848 165.17 59.544C165.038 60.24 164.798 60.756 164.45 61.092H169.184V55.296H165.494L165.44 56.844ZM178.448 53.28C179.864 53.28 180.944 53.622 181.688 54.306C182.444 54.978 182.822 55.998 182.822 57.366V63H180.698V61.83C180.422 62.25 180.026 62.574 179.51 62.802C179.006 63.018 178.394 63.126 177.674 63.126C176.954 63.126 176.324 63.006 175.784 62.766C175.244 62.514 174.824 62.172 174.524 61.74C174.236 61.296 174.092 60.798 174.092 60.246C174.092 59.382 174.41 58.692 175.046 58.176C175.694 57.648 176.708 57.384 178.088 57.384H180.572V57.24C180.572 56.568 180.368 56.052 179.96 55.692C179.564 55.332 178.97 55.152 178.178 55.152C177.638 55.152 177.104 55.236 176.576 55.404C176.06 55.572 175.622 55.806 175.262 56.106L174.38 54.468C174.884 54.084 175.49 53.79 176.198 53.586C176.906 53.382 177.656 53.28 178.448 53.28ZM178.142 61.488C178.706 61.488 179.204 61.362 179.636 61.11C180.08 60.846 180.392 60.474 180.572 59.994V58.878H178.25C176.954 58.878 176.306 59.304 176.306 60.156C176.306 60.564 176.468 60.888 176.792 61.128C177.116 61.368 177.566 61.488 178.142 61.488ZM185.606 53.388H187.856V57.294H192.698V53.388H194.948V63H192.698V59.202H187.856V63H185.606V53.388ZM197.963 53.388H200.213V59.724L205.523 53.388H207.575V63H205.325V56.664L200.033 63H197.963V53.388ZM219.602 58.248C219.602 58.404 219.59 58.626 219.566 58.914H212.024C212.156 59.622 212.498 60.186 213.05 60.606C213.614 61.014 214.31 61.218 215.138 61.218C216.194 61.218 217.064 60.87 217.748 60.174L218.954 61.56C218.522 62.076 217.976 62.466 217.316 62.73C216.656 62.994 215.912 63.126 215.084 63.126C214.028 63.126 213.098 62.916 212.294 62.496C211.49 62.076 210.866 61.494 210.422 60.75C209.99 59.994 209.774 59.142 209.774 58.194C209.774 57.258 209.984 56.418 210.404 55.674C210.836 54.918 211.43 54.33 212.186 53.91C212.942 53.49 213.794 53.28 214.742 53.28C215.678 53.28 216.512 53.49 217.244 53.91C217.988 54.318 218.564 54.9 218.972 55.656C219.392 56.4 219.602 57.264 219.602 58.248ZM214.742 55.08C214.022 55.08 213.41 55.296 212.906 55.728C212.414 56.148 212.114 56.712 212.006 57.42H217.46C217.364 56.724 217.07 56.16 216.578 55.728C216.086 55.296 215.474 55.08 214.742 55.08ZM231.411 63.126C230.415 63.126 229.521 62.916 228.729 62.496C227.937 62.076 227.319 61.494 226.875 60.75C226.431 59.994 226.209 59.142 226.209 58.194C226.209 57.246 226.431 56.4 226.875 55.656C227.319 54.912 227.931 54.33 228.711 53.91C229.503 53.49 230.403 53.28 231.411 53.28C232.359 53.28 233.187 53.472 233.895 53.856C234.615 54.24 235.155 54.792 235.515 55.512L233.787 56.52C233.511 56.076 233.163 55.746 232.743 55.53C232.335 55.302 231.885 55.188 231.393 55.188C230.553 55.188 229.857 55.464 229.305 56.016C228.753 56.556 228.477 57.282 228.477 58.194C228.477 59.106 228.747 59.838 229.287 60.39C229.839 60.93 230.541 61.2 231.393 61.2C231.885 61.2 232.335 61.092 232.743 60.876C233.163 60.648 233.511 60.312 233.787 59.868L235.515 60.876C235.143 61.596 234.597 62.154 233.877 62.55C233.169 62.934 232.347 63.126 231.411 63.126ZM241.078 53.28C242.494 53.28 243.574 53.622 244.318 54.306C245.074 54.978 245.452 55.998 245.452 57.366V63H243.328V61.83C243.052 62.25 242.656 62.574 242.14 62.802C241.636 63.018 241.024 63.126 240.304 63.126C239.584 63.126 238.954 63.006 238.414 62.766C237.874 62.514 237.454 62.172 237.154 61.74C236.866 61.296 236.722 60.798 236.722 60.246C236.722 59.382 237.04 58.692 237.676 58.176C238.324 57.648 239.338 57.384 240.718 57.384H243.202V57.24C243.202 56.568 242.998 56.052 242.59 55.692C242.194 55.332 241.6 55.152 240.808 55.152C240.268 55.152 239.734 55.236 239.206 55.404C238.69 55.572 238.252 55.806 237.892 56.106L237.01 54.468C237.514 54.084 238.12 53.79 238.828 53.586C239.536 53.382 240.286 53.28 241.078 53.28ZM240.772 61.488C241.336 61.488 241.834 61.362 242.266 61.11C242.71 60.846 243.022 60.474 243.202 59.994V58.878H240.88C239.584 58.878 238.936 59.304 238.936 60.156C238.936 60.564 239.098 60.888 239.422 61.128C239.746 61.368 240.196 61.488 240.772 61.488ZM248.237 53.388H250.487V59.724L255.797 53.388H257.849V63H255.599V56.664L250.307 63H248.237V53.388ZM252.899 52.254C251.927 52.254 251.183 52.032 250.667 51.588C250.163 51.132 249.905 50.472 249.893 49.608H251.387C251.399 50.04 251.531 50.382 251.783 50.634C252.047 50.886 252.413 51.012 252.881 51.012C253.337 51.012 253.697 50.886 253.961 50.634C254.237 50.382 254.381 50.04 254.393 49.608H255.923C255.911 50.472 255.647 51.132 255.131 51.588C254.615 52.032 253.871 52.254 252.899 52.254ZM268.489 55.296H265.123V63H262.873V55.296H259.489V53.388H268.489V55.296ZM273.984 63.126C273.012 63.126 272.136 62.916 271.356 62.496C270.576 62.076 269.964 61.494 269.52 60.75C269.088 59.994 268.872 59.142 268.872 58.194C268.872 57.246 269.088 56.4 269.52 55.656C269.964 54.912 270.576 54.33 271.356 53.91C272.136 53.49 273.012 53.28 273.984 53.28C274.968 53.28 275.85 53.49 276.63 53.91C277.41 54.33 278.016 54.912 278.448 55.656C278.892 56.4 279.114 57.246 279.114 58.194C279.114 59.142 278.892 59.994 278.448 60.75C278.016 61.494 277.41 62.076 276.63 62.496C275.85 62.916 274.968 63.126 273.984 63.126ZM273.984 61.2C274.812 61.2 275.496 60.924 276.036 60.372C276.576 59.82 276.846 59.094 276.846 58.194C276.846 57.294 276.576 56.568 276.036 56.016C275.496 55.464 274.812 55.188 273.984 55.188C273.156 55.188 272.472 55.464 271.932 56.016C271.404 56.568 271.14 57.294 271.14 58.194C271.14 59.094 271.404 59.82 271.932 60.372C272.472 60.924 273.156 61.2 273.984 61.2ZM288.302 57.996C289.49 58.356 290.084 59.124 290.084 60.3C290.084 61.164 289.76 61.83 289.112 62.298C288.464 62.766 287.504 63 286.232 63H281.336V53.388H286.034C287.21 53.388 288.128 53.604 288.788 54.036C289.448 54.468 289.778 55.08 289.778 55.872C289.778 56.364 289.646 56.79 289.382 57.15C289.13 57.51 288.77 57.792 288.302 57.996ZM283.478 57.402H285.836C287 57.402 287.582 57 287.582 56.196C287.582 55.416 287 55.026 285.836 55.026H283.478V57.402ZM286.052 61.362C287.288 61.362 287.906 60.96 287.906 60.156C287.906 59.736 287.762 59.424 287.474 59.22C287.186 59.004 286.736 58.896 286.124 58.896H283.478V61.362H286.052Z" fill="black"/>
<path d="M129.596 85.2H130.632V94.104H136.12V95H129.596V85.2ZM140.531 95.07C139.821 95.07 139.182 94.9113 138.613 94.594C138.043 94.2673 137.595 93.8193 137.269 93.25C136.942 92.6807 136.779 92.0367 136.779 91.318C136.779 90.5993 136.942 89.9553 137.269 89.386C137.595 88.8167 138.043 88.3733 138.613 88.056C139.182 87.7387 139.821 87.58 140.531 87.58C141.24 87.58 141.879 87.7387 142.449 88.056C143.018 88.3733 143.461 88.8167 143.779 89.386C144.105 89.9553 144.269 90.5993 144.269 91.318C144.269 92.0367 144.105 92.6807 143.779 93.25C143.461 93.8193 143.018 94.2673 142.449 94.594C141.879 94.9113 141.24 95.07 140.531 95.07ZM140.531 94.188C141.053 94.188 141.52 94.0713 141.931 93.838C142.351 93.5953 142.677 93.2547 142.911 92.816C143.144 92.3773 143.261 91.878 143.261 91.318C143.261 90.758 143.144 90.2587 142.911 89.82C142.677 89.3813 142.351 89.0453 141.931 88.812C141.52 88.5693 141.053 88.448 140.531 88.448C140.008 88.448 139.537 88.5693 139.117 88.812C138.706 89.0453 138.379 89.3813 138.137 89.82C137.903 90.2587 137.787 90.758 137.787 91.318C137.787 91.878 137.903 92.3773 138.137 92.816C138.379 93.2547 138.706 93.5953 139.117 93.838C139.537 94.0713 140.008 94.188 140.531 94.188ZM147.25 89.078C147.483 88.5833 147.829 88.21 148.286 87.958C148.753 87.706 149.327 87.58 150.008 87.58V88.546L149.77 88.532C148.995 88.532 148.389 88.77 147.95 89.246C147.511 89.722 147.292 90.3893 147.292 91.248V95H146.298V87.636H147.25V89.078ZM158.152 91.626H151.992C152.048 92.3913 152.342 93.012 152.874 93.488C153.406 93.9547 154.078 94.188 154.89 94.188C155.347 94.188 155.767 94.1087 156.15 93.95C156.532 93.782 156.864 93.5393 157.144 93.222L157.704 93.866C157.377 94.258 156.966 94.5567 156.472 94.762C155.986 94.9673 155.45 95.07 154.862 95.07C154.106 95.07 153.434 94.9113 152.846 94.594C152.267 94.2673 151.814 93.8193 151.488 93.25C151.161 92.6807 150.998 92.0367 150.998 91.318C150.998 90.5993 151.152 89.9553 151.46 89.386C151.777 88.8167 152.206 88.3733 152.748 88.056C153.298 87.7387 153.914 87.58 154.596 87.58C155.277 87.58 155.888 87.7387 156.43 88.056C156.971 88.3733 157.396 88.8167 157.704 89.386C158.012 89.946 158.166 90.59 158.166 91.318L158.152 91.626ZM154.596 88.434C153.886 88.434 153.289 88.6627 152.804 89.12C152.328 89.568 152.057 90.156 151.992 90.884H157.214C157.148 90.156 156.873 89.568 156.388 89.12C155.912 88.6627 155.314 88.434 154.596 88.434ZM169.373 87.58C170.297 87.58 171.02 87.846 171.543 88.378C172.075 88.91 172.341 89.694 172.341 90.73V95H171.347V90.828C171.347 90.0627 171.16 89.4793 170.787 89.078C170.423 88.6767 169.905 88.476 169.233 88.476C168.467 88.476 167.865 88.714 167.427 89.19C166.988 89.6567 166.769 90.3053 166.769 91.136V95H165.775V90.828C165.775 90.0627 165.588 89.4793 165.215 89.078C164.851 88.6767 164.328 88.476 163.647 88.476C162.891 88.476 162.289 88.714 161.841 89.19C161.402 89.6567 161.183 90.3053 161.183 91.136V95H160.189V87.636H161.141V88.98C161.402 88.532 161.766 88.1867 162.233 87.944C162.699 87.7013 163.236 87.58 163.843 87.58C164.459 87.58 164.991 87.7107 165.439 87.972C165.896 88.2333 166.237 88.6207 166.461 89.134C166.731 88.6487 167.119 88.2707 167.623 88C168.136 87.72 168.719 87.58 169.373 87.58ZM178.91 85.2H179.946V95H178.91V85.2ZM186.719 87.58C187.41 87.58 188.035 87.7387 188.595 88.056C189.155 88.364 189.594 88.8027 189.911 89.372C190.228 89.9413 190.387 90.59 190.387 91.318C190.387 92.0553 190.228 92.7087 189.911 93.278C189.594 93.8473 189.155 94.2907 188.595 94.608C188.044 94.916 187.419 95.07 186.719 95.07C186.122 95.07 185.58 94.9487 185.095 94.706C184.619 94.454 184.227 94.09 183.919 93.614V97.716H182.925V87.636H183.877V89.092C184.176 88.6067 184.568 88.2333 185.053 87.972C185.548 87.7107 186.103 87.58 186.719 87.58ZM186.649 94.188C187.162 94.188 187.629 94.0713 188.049 93.838C188.469 93.5953 188.796 93.2547 189.029 92.816C189.272 92.3773 189.393 91.878 189.393 91.318C189.393 90.758 189.272 90.2633 189.029 89.834C188.796 89.3953 188.469 89.0547 188.049 88.812C187.629 88.5693 187.162 88.448 186.649 88.448C186.126 88.448 185.655 88.5693 185.235 88.812C184.824 89.0547 184.498 89.3953 184.255 89.834C184.022 90.2633 183.905 90.758 183.905 91.318C183.905 91.878 184.022 92.3773 184.255 92.816C184.498 93.2547 184.824 93.5953 185.235 93.838C185.655 94.0713 186.126 94.188 186.649 94.188ZM194.387 95.07C193.79 95.07 193.216 94.986 192.665 94.818C192.124 94.6407 191.699 94.4213 191.391 94.16L191.839 93.376C192.147 93.6187 192.535 93.8193 193.001 93.978C193.468 94.1273 193.953 94.202 194.457 94.202C195.129 94.202 195.624 94.0993 195.941 93.894C196.268 93.6793 196.431 93.3807 196.431 92.998C196.431 92.7273 196.343 92.5173 196.165 92.368C195.988 92.2093 195.764 92.0927 195.493 92.018C195.223 91.934 194.863 91.8547 194.415 91.78C193.818 91.668 193.337 91.556 192.973 91.444C192.609 91.3227 192.297 91.122 192.035 90.842C191.783 90.562 191.657 90.1747 191.657 89.68C191.657 89.064 191.914 88.56 192.427 88.168C192.941 87.776 193.655 87.58 194.569 87.58C195.045 87.58 195.521 87.6453 195.997 87.776C196.473 87.8973 196.865 88.0607 197.173 88.266L196.739 89.064C196.133 88.644 195.409 88.434 194.569 88.434C193.935 88.434 193.454 88.546 193.127 88.77C192.81 88.994 192.651 89.288 192.651 89.652C192.651 89.932 192.74 90.156 192.917 90.324C193.104 90.492 193.333 90.618 193.603 90.702C193.874 90.7767 194.247 90.856 194.723 90.94C195.311 91.052 195.783 91.164 196.137 91.276C196.492 91.388 196.795 91.5793 197.047 91.85C197.299 92.1207 197.425 92.494 197.425 92.97C197.425 93.614 197.155 94.1273 196.613 94.51C196.081 94.8833 195.339 95.07 194.387 95.07ZM205.899 87.636V95H204.947V93.656C204.686 94.104 204.326 94.454 203.869 94.706C203.412 94.9487 202.889 95.07 202.301 95.07C201.34 95.07 200.579 94.804 200.019 94.272C199.468 93.7307 199.193 92.942 199.193 91.906V87.636H200.187V91.808C200.187 92.5827 200.378 93.1707 200.761 93.572C201.144 93.9733 201.69 94.174 202.399 94.174C203.174 94.174 203.785 93.9407 204.233 93.474C204.681 92.998 204.905 92.34 204.905 91.5V87.636H205.899ZM217.867 87.58C218.791 87.58 219.514 87.846 220.037 88.378C220.569 88.91 220.835 89.694 220.835 90.73V95H219.841V90.828C219.841 90.0627 219.654 89.4793 219.281 89.078C218.917 88.6767 218.399 88.476 217.727 88.476C216.962 88.476 216.36 88.714 215.921 89.19C215.482 89.6567 215.263 90.3053 215.263 91.136V95H214.269V90.828C214.269 90.0627 214.082 89.4793 213.709 89.078C213.345 88.6767 212.822 88.476 212.141 88.476C211.385 88.476 210.783 88.714 210.335 89.19C209.896 89.6567 209.677 90.3053 209.677 91.136V95H208.683V87.636H209.635V88.98C209.896 88.532 210.26 88.1867 210.727 87.944C211.194 87.7013 211.73 87.58 212.337 87.58C212.953 87.58 213.485 87.7107 213.933 87.972C214.39 88.2333 214.731 88.6207 214.955 89.134C215.226 88.6487 215.613 88.2707 216.117 88C216.63 87.72 217.214 87.58 217.867 87.58ZM226.649 90.772H230.317V91.64H226.649V90.772ZM238.234 87.58C238.972 87.58 239.634 87.7433 240.222 88.07C240.82 88.3873 241.286 88.8307 241.622 89.4C241.968 89.9693 242.14 90.6087 242.14 91.318C242.14 92.0273 241.968 92.6713 241.622 93.25C241.286 93.8193 240.82 94.2673 240.222 94.594C239.634 94.9207 238.972 95.084 238.234 95.084C237.618 95.084 237.054 94.9907 236.54 94.804C236.027 94.608 235.593 94.328 235.238 93.964L235.826 93.376C236.452 93.964 237.24 94.258 238.192 94.258C238.724 94.258 239.205 94.146 239.634 93.922C240.073 93.698 240.428 93.3853 240.698 92.984C240.978 92.5827 241.142 92.1347 241.188 91.64H237.254V90.884H241.174C241.072 90.1467 240.745 89.5493 240.194 89.092C239.644 88.6253 238.976 88.392 238.192 88.392C237.24 88.392 236.452 88.686 235.826 89.274L235.238 88.7C235.593 88.336 236.027 88.0607 236.54 87.874C237.054 87.678 237.618 87.58 238.234 87.58ZM249.137 88.518H246.351V95H245.357V88.518H242.571V87.636H249.137V88.518ZM253.27 95.07C252.561 95.07 251.922 94.9113 251.352 94.594C250.783 94.2673 250.335 93.8193 250.008 93.25C249.682 92.6807 249.518 92.0367 249.518 91.318C249.518 90.5993 249.682 89.9553 250.008 89.386C250.335 88.8167 250.783 88.3733 251.352 88.056C251.922 87.7387 252.561 87.58 253.27 87.58C253.98 87.58 254.619 87.7387 255.188 88.056C255.758 88.3733 256.201 88.8167 256.518 89.386C256.845 89.9553 257.008 90.5993 257.008 91.318C257.008 92.0367 256.845 92.6807 256.518 93.25C256.201 93.8193 255.758 94.2673 255.188 94.594C254.619 94.9113 253.98 95.07 253.27 95.07ZM253.27 94.188C253.793 94.188 254.26 94.0713 254.67 93.838C255.09 93.5953 255.417 93.2547 255.65 92.816C255.884 92.3773 256 91.878 256 91.318C256 90.758 255.884 90.2587 255.65 89.82C255.417 89.3813 255.09 89.0453 254.67 88.812C254.26 88.5693 253.793 88.448 253.27 88.448C252.748 88.448 252.276 88.5693 251.856 88.812C251.446 89.0453 251.119 89.3813 250.876 89.82C250.643 90.2587 250.526 90.758 250.526 91.318C250.526 91.878 250.643 92.3773 250.876 92.816C251.119 93.2547 251.446 93.5953 251.856 93.838C252.276 94.0713 252.748 94.188 253.27 94.188ZM267.977 88.518H265.191V95H264.197V88.518H261.411V87.636H267.977V88.518ZM275.512 91.626H269.352C269.408 92.3913 269.702 93.012 270.234 93.488C270.766 93.9547 271.438 94.188 272.25 94.188C272.708 94.188 273.128 94.1087 273.51 93.95C273.893 93.782 274.224 93.5393 274.504 93.222L275.064 93.866C274.738 94.258 274.327 94.5567 273.832 94.762C273.347 94.9673 272.81 95.07 272.222 95.07C271.466 95.07 270.794 94.9113 270.206 94.594C269.628 94.2673 269.175 93.8193 268.848 93.25C268.522 92.6807 268.358 92.0367 268.358 91.318C268.358 90.5993 268.512 89.9553 268.82 89.386C269.138 88.8167 269.567 88.3733 270.108 88.056C270.659 87.7387 271.275 87.58 271.956 87.58C272.638 87.58 273.249 87.7387 273.79 88.056C274.332 88.3733 274.756 88.8167 275.064 89.386C275.372 89.946 275.526 90.59 275.526 91.318L275.512 91.626ZM271.956 88.434C271.247 88.434 270.65 88.6627 270.164 89.12C269.688 89.568 269.418 90.156 269.352 90.884H274.574C274.509 90.156 274.234 89.568 273.748 89.12C273.272 88.6627 272.675 88.434 271.956 88.434ZM280.401 91.724H278.721V95H277.727V87.636H278.721V90.87H280.415L283.005 87.636H284.083L281.185 91.206L284.293 95H283.117L280.401 91.724ZM288.682 95.07C287.954 95.07 287.3 94.9113 286.722 94.594C286.152 94.2767 285.704 93.8333 285.378 93.264C285.051 92.6853 284.888 92.0367 284.888 91.318C284.888 90.5993 285.051 89.9553 285.378 89.386C285.704 88.8167 286.152 88.3733 286.722 88.056C287.3 87.7387 287.954 87.58 288.682 87.58C289.316 87.58 289.881 87.706 290.376 87.958C290.88 88.2007 291.276 88.56 291.566 89.036L290.824 89.54C290.581 89.176 290.273 88.9053 289.9 88.728C289.526 88.5413 289.12 88.448 288.682 88.448C288.15 88.448 287.669 88.5693 287.24 88.812C286.82 89.0453 286.488 89.3813 286.245 89.82C286.012 90.2587 285.896 90.758 285.896 91.318C285.896 91.8873 286.012 92.3913 286.245 92.83C286.488 93.2593 286.82 93.5953 287.24 93.838C287.669 94.0713 288.15 94.188 288.682 94.188C289.12 94.188 289.526 94.0993 289.9 93.922C290.273 93.7447 290.581 93.474 290.824 93.11L291.566 93.614C291.276 94.09 290.88 94.454 290.376 94.706C289.872 94.9487 289.307 95.07 288.682 95.07ZM298.533 88.518H295.747V95H294.753V88.518H291.967V87.636H298.533V88.518ZM299.069 90.772H302.737V91.64H299.069V90.772ZM128.966 107.2H129.848L129.778 110.896H129.036L128.966 107.2ZM131.36 107.2H132.242L132.172 110.896H131.43L131.36 107.2ZM138.431 109.58C139.121 109.58 139.747 109.739 140.307 110.056C140.867 110.364 141.305 110.803 141.623 111.372C141.94 111.941 142.099 112.59 142.099 113.318C142.099 114.055 141.94 114.709 141.623 115.278C141.305 115.847 140.867 116.291 140.307 116.608C139.756 116.916 139.131 117.07 138.431 117.07C137.833 117.07 137.292 116.949 136.807 116.706C136.331 116.454 135.939 116.09 135.631 115.614V119.716H134.637V109.636H135.589V111.092C135.887 110.607 136.279 110.233 136.765 109.972C137.259 109.711 137.815 109.58 138.431 109.58ZM138.361 116.188C138.874 116.188 139.341 116.071 139.761 115.838C140.181 115.595 140.507 115.255 140.741 114.816C140.983 114.377 141.105 113.878 141.105 113.318C141.105 112.758 140.983 112.263 140.741 111.834C140.507 111.395 140.181 111.055 139.761 110.812C139.341 110.569 138.874 110.448 138.361 110.448C137.838 110.448 137.367 110.569 136.947 110.812C136.536 111.055 136.209 111.395 135.967 111.834C135.733 112.263 135.617 112.758 135.617 113.318C135.617 113.878 135.733 114.377 135.967 114.816C136.209 115.255 136.536 115.595 136.947 115.838C137.367 116.071 137.838 116.188 138.361 116.188ZM147.328 112.24C148.252 112.249 148.957 112.455 149.442 112.856C149.928 113.257 150.17 113.836 150.17 114.592C150.17 115.376 149.909 115.978 149.386 116.398C148.864 116.818 148.117 117.023 147.146 117.014L144.234 117V109.636H145.228V112.212L147.328 112.24ZM151.402 109.636H152.396V117H151.402V109.636ZM147.09 116.258C147.772 116.267 148.285 116.132 148.63 115.852C148.985 115.563 149.162 115.143 149.162 114.592C149.162 114.051 148.99 113.649 148.644 113.388C148.299 113.127 147.781 112.991 147.09 112.982L145.228 112.954V116.23L147.09 116.258ZM158.797 109.818C159.478 109.818 160.085 109.972 160.617 110.28C161.158 110.579 161.578 111.003 161.877 111.554C162.175 112.095 162.325 112.716 162.325 113.416C162.325 114.135 162.166 114.774 161.849 115.334C161.541 115.885 161.107 116.314 160.547 116.622C159.987 116.93 159.343 117.084 158.615 117.084C157.392 117.084 156.445 116.655 155.773 115.796C155.101 114.937 154.765 113.752 154.765 112.24C154.765 110.663 155.063 109.454 155.66 108.614C156.267 107.774 157.21 107.205 158.489 106.906L161.793 106.15L161.961 107.06L158.853 107.774C157.798 108.007 157.023 108.423 156.529 109.02C156.034 109.608 155.763 110.481 155.717 111.638C156.015 111.069 156.431 110.625 156.963 110.308C157.495 109.981 158.106 109.818 158.797 109.818ZM158.643 116.258C159.156 116.258 159.613 116.141 160.015 115.908C160.425 115.665 160.743 115.329 160.967 114.9C161.2 114.471 161.317 113.985 161.317 113.444C161.317 112.903 161.205 112.427 160.981 112.016C160.757 111.605 160.439 111.288 160.029 111.064C159.627 110.831 159.165 110.714 158.643 110.714C158.12 110.714 157.653 110.831 157.243 111.064C156.841 111.288 156.524 111.605 156.291 112.016C156.067 112.427 155.955 112.903 155.955 113.444C155.955 113.985 156.067 114.471 156.291 114.9C156.524 115.329 156.846 115.665 157.257 115.908C157.667 116.141 158.129 116.258 158.643 116.258ZM166.948 109.58C167.909 109.58 168.647 109.823 169.16 110.308C169.673 110.784 169.93 111.493 169.93 112.436V117H168.978V115.852C168.754 116.235 168.423 116.533 167.984 116.748C167.555 116.963 167.041 117.07 166.444 117.07C165.623 117.07 164.969 116.874 164.484 116.482C163.999 116.09 163.756 115.572 163.756 114.928C163.756 114.303 163.98 113.799 164.428 113.416C164.885 113.033 165.609 112.842 166.598 112.842H168.936V112.394C168.936 111.759 168.759 111.279 168.404 110.952C168.049 110.616 167.531 110.448 166.85 110.448C166.383 110.448 165.935 110.527 165.506 110.686C165.077 110.835 164.708 111.045 164.4 111.316L163.952 110.574C164.325 110.257 164.773 110.014 165.296 109.846C165.819 109.669 166.369 109.58 166.948 109.58ZM166.598 116.286C167.158 116.286 167.639 116.16 168.04 115.908C168.441 115.647 168.74 115.273 168.936 114.788V113.584H166.626C165.366 113.584 164.736 114.023 164.736 114.9C164.736 115.329 164.899 115.67 165.226 115.922C165.553 116.165 166.01 116.286 166.598 116.286ZM172.128 107.2H173.01L172.94 110.896H172.198L172.128 107.2ZM174.522 107.2H175.404L175.334 110.896H174.592L174.522 107.2ZM177.117 115.544C177.332 115.544 177.509 115.619 177.649 115.768C177.789 115.908 177.859 116.085 177.859 116.3C177.859 116.412 177.84 116.533 177.803 116.664C177.775 116.795 177.728 116.944 177.663 117.112L177.075 119.044H176.403L176.879 117.014C176.73 116.967 176.608 116.883 176.515 116.762C176.422 116.631 176.375 116.477 176.375 116.3C176.375 116.085 176.445 115.908 176.585 115.768C176.725 115.619 176.902 115.544 177.117 115.544ZM189.222 109.636V117H188.228V113.934C187.379 114.307 186.543 114.494 185.722 114.494C184.835 114.494 184.145 114.293 183.65 113.892C183.155 113.481 182.908 112.87 182.908 112.058V109.636H183.902V112.002C183.902 112.553 184.079 112.973 184.434 113.262C184.789 113.542 185.279 113.682 185.904 113.682C186.595 113.682 187.369 113.5 188.228 113.136V109.636H189.222ZM194.579 109.58C195.54 109.58 196.278 109.823 196.791 110.308C197.304 110.784 197.561 111.493 197.561 112.436V117H196.609V115.852C196.385 116.235 196.054 116.533 195.615 116.748C195.186 116.963 194.672 117.07 194.075 117.07C193.254 117.07 192.6 116.874 192.115 116.482C191.63 116.09 191.387 115.572 191.387 114.928C191.387 114.303 191.611 113.799 192.059 113.416C192.516 113.033 193.24 112.842 194.229 112.842H196.567V112.394C196.567 111.759 196.39 111.279 196.035 110.952C195.68 110.616 195.162 110.448 194.481 110.448C194.014 110.448 193.566 110.527 193.137 110.686C192.708 110.835 192.339 111.045 192.031 111.316L191.583 110.574C191.956 110.257 192.404 110.014 192.927 109.846C193.45 109.669 194 109.58 194.579 109.58ZM194.229 116.286C194.789 116.286 195.27 116.16 195.671 115.908C196.072 115.647 196.371 115.273 196.567 114.788V113.584H194.257C192.997 113.584 192.367 114.023 192.367 114.9C192.367 115.329 192.53 115.67 192.857 115.922C193.184 116.165 193.641 116.286 194.229 116.286ZM203.287 117.07C202.559 117.07 201.906 116.911 201.327 116.594C200.758 116.277 200.31 115.833 199.983 115.264C199.656 114.685 199.493 114.037 199.493 113.318C199.493 112.599 199.656 111.955 199.983 111.386C200.31 110.817 200.758 110.373 201.327 110.056C201.906 109.739 202.559 109.58 203.287 109.58C203.922 109.58 204.486 109.706 204.981 109.958C205.485 110.201 205.882 110.56 206.171 111.036L205.429 111.54C205.186 111.176 204.878 110.905 204.505 110.728C204.132 110.541 203.726 110.448 203.287 110.448C202.755 110.448 202.274 110.569 201.845 110.812C201.425 111.045 201.094 111.381 200.851 111.82C200.618 112.259 200.501 112.758 200.501 113.318C200.501 113.887 200.618 114.391 200.851 114.83C201.094 115.259 201.425 115.595 201.845 115.838C202.274 116.071 202.755 116.188 203.287 116.188C203.726 116.188 204.132 116.099 204.505 115.922C204.878 115.745 205.186 115.474 205.429 115.11L206.171 115.614C205.882 116.09 205.485 116.454 204.981 116.706C204.477 116.949 203.912 117.07 203.287 117.07ZM213.139 110.518H210.353V117H209.359V110.518H206.573V109.636H213.139V110.518ZM217.272 117.07C216.563 117.07 215.924 116.911 215.354 116.594C214.785 116.267 214.337 115.819 214.01 115.25C213.684 114.681 213.52 114.037 213.52 113.318C213.52 112.599 213.684 111.955 214.01 111.386C214.337 110.817 214.785 110.373 215.354 110.056C215.924 109.739 216.563 109.58 217.272 109.58C217.982 109.58 218.621 109.739 219.19 110.056C219.76 110.373 220.203 110.817 220.52 111.386C220.847 111.955 221.01 112.599 221.01 113.318C221.01 114.037 220.847 114.681 220.52 115.25C220.203 115.819 219.76 116.267 219.19 116.594C218.621 116.911 217.982 117.07 217.272 117.07ZM217.272 116.188C217.795 116.188 218.262 116.071 218.672 115.838C219.092 115.595 219.419 115.255 219.652 114.816C219.886 114.377 220.002 113.878 220.002 113.318C220.002 112.758 219.886 112.259 219.652 111.82C219.419 111.381 219.092 111.045 218.672 110.812C218.262 110.569 217.795 110.448 217.272 110.448C216.75 110.448 216.278 110.569 215.858 110.812C215.448 111.045 215.121 111.381 214.878 111.82C214.645 112.259 214.528 112.758 214.528 113.318C214.528 113.878 214.645 114.377 214.878 114.816C215.121 115.255 215.448 115.595 215.858 115.838C216.278 116.071 216.75 116.188 217.272 116.188ZM226.799 109.636H227.793V115.488L232.707 109.636H233.589V117H232.595V111.148L227.695 117H226.799V109.636ZM239.517 117.07C238.789 117.07 238.136 116.911 237.557 116.594C236.988 116.277 236.54 115.833 236.213 115.264C235.887 114.685 235.723 114.037 235.723 113.318C235.723 112.599 235.887 111.955 236.213 111.386C236.54 110.817 236.988 110.373 237.557 110.056C238.136 109.739 238.789 109.58 239.517 109.58C240.152 109.58 240.717 109.706 241.211 109.958C241.715 110.201 242.112 110.56 242.401 111.036L241.659 111.54C241.417 111.176 241.109 110.905 240.735 110.728C240.362 110.541 239.956 110.448 239.517 110.448C238.985 110.448 238.505 110.569 238.075 110.812C237.655 111.045 237.324 111.381 237.081 111.82C236.848 112.259 236.731 112.758 236.731 113.318C236.731 113.887 236.848 114.391 237.081 114.83C237.324 115.259 237.655 115.595 238.075 115.838C238.505 116.071 238.985 116.188 239.517 116.188C239.956 116.188 240.362 116.099 240.735 115.922C241.109 115.745 241.417 115.474 241.659 115.11L242.401 115.614C242.112 116.09 241.715 116.454 241.211 116.706C240.707 116.949 240.143 117.07 239.517 117.07ZM250.934 109.636V117H249.94V110.518H245.32V117H244.326V109.636H250.934ZM256.798 117.07C256.088 117.07 255.449 116.911 254.88 116.594C254.31 116.267 253.862 115.819 253.536 115.25C253.209 114.681 253.046 114.037 253.046 113.318C253.046 112.599 253.209 111.955 253.536 111.386C253.862 110.817 254.31 110.373 254.88 110.056C255.449 109.739 256.088 109.58 256.798 109.58C257.507 109.58 258.146 109.739 258.716 110.056C259.285 110.373 259.728 110.817 260.046 111.386C260.372 111.955 260.536 112.599 260.536 113.318C260.536 114.037 260.372 114.681 260.046 115.25C259.728 115.819 259.285 116.267 258.716 116.594C258.146 116.911 257.507 117.07 256.798 117.07ZM256.798 116.188C257.32 116.188 257.787 116.071 258.198 115.838C258.618 115.595 258.944 115.255 259.178 114.816C259.411 114.377 259.528 113.878 259.528 113.318C259.528 112.758 259.411 112.259 259.178 111.82C258.944 111.381 258.618 111.045 258.198 110.812C257.787 110.569 257.32 110.448 256.798 110.448C256.275 110.448 255.804 110.569 255.384 110.812C254.973 111.045 254.646 111.381 254.404 111.82C254.17 112.259 254.054 112.758 254.054 113.318C254.054 113.878 254.17 114.377 254.404 114.816C254.646 115.255 254.973 115.595 255.384 115.838C255.804 116.071 256.275 116.188 256.798 116.188ZM268.639 109.636V117H267.645V110.518H264.117L264.019 112.338C263.944 113.869 263.767 115.045 263.487 115.866C263.207 116.687 262.708 117.098 261.989 117.098C261.793 117.098 261.555 117.061 261.275 116.986L261.345 116.132C261.513 116.169 261.63 116.188 261.695 116.188C262.078 116.188 262.367 116.011 262.563 115.656C262.759 115.301 262.89 114.863 262.955 114.34C263.02 113.817 263.076 113.127 263.123 112.268L263.249 109.636H268.639ZM274.629 112.24C275.553 112.249 276.253 112.455 276.729 112.856C277.214 113.257 277.457 113.836 277.457 114.592C277.457 115.376 277.195 115.978 276.673 116.398C276.159 116.818 275.413 117.023 274.433 117.014L271.465 117V109.636H272.459V112.212L274.629 112.24ZM274.377 116.258C275.058 116.267 275.571 116.132 275.917 115.852C276.271 115.563 276.449 115.143 276.449 114.592C276.449 114.051 276.276 113.649 275.931 113.388C275.585 113.127 275.067 112.991 274.377 112.982L272.459 112.954V116.23L274.377 116.258ZM282.869 113.164C283.392 113.285 283.793 113.495 284.073 113.794C284.362 114.093 284.507 114.457 284.507 114.886C284.507 115.315 284.358 115.698 284.059 116.034C283.77 116.37 283.373 116.631 282.869 116.818C282.365 116.995 281.81 117.084 281.203 117.084C280.671 117.084 280.148 117.009 279.635 116.86C279.122 116.701 278.674 116.473 278.291 116.174L278.627 115.432C278.963 115.684 279.355 115.88 279.803 116.02C280.251 116.16 280.704 116.23 281.161 116.23C281.842 116.23 282.398 116.104 282.827 115.852C283.266 115.591 283.485 115.241 283.485 114.802C283.485 114.41 283.308 114.107 282.953 113.892C282.598 113.668 282.113 113.556 281.497 113.556H280.237V112.828H281.441C281.992 112.828 282.435 112.725 282.771 112.52C283.107 112.305 283.275 112.021 283.275 111.666C283.275 111.274 283.084 110.966 282.701 110.742C282.328 110.518 281.838 110.406 281.231 110.406C280.438 110.406 279.654 110.607 278.879 111.008L278.599 110.238C279.476 109.781 280.386 109.552 281.329 109.552C281.889 109.552 282.393 109.636 282.841 109.804C283.298 109.963 283.653 110.191 283.905 110.49C284.166 110.789 284.297 111.134 284.297 111.526C284.297 111.899 284.166 112.231 283.905 112.52C283.653 112.809 283.308 113.024 282.869 113.164ZM293.022 109.636L289.34 117.882C289.041 118.573 288.696 119.063 288.304 119.352C287.912 119.641 287.44 119.786 286.89 119.786C286.535 119.786 286.204 119.73 285.896 119.618C285.588 119.506 285.322 119.338 285.098 119.114L285.56 118.372C285.933 118.745 286.381 118.932 286.904 118.932C287.24 118.932 287.524 118.839 287.758 118.652C288 118.465 288.224 118.148 288.43 117.7L288.752 116.986L285.462 109.636H286.498L289.27 115.894L292.042 109.636H293.022ZM300.805 113.626H294.645C294.701 114.391 294.995 115.012 295.527 115.488C296.059 115.955 296.731 116.188 297.543 116.188C298.001 116.188 298.421 116.109 298.803 115.95C299.186 115.782 299.517 115.539 299.797 115.222L300.357 115.866C300.031 116.258 299.62 116.557 299.125 116.762C298.64 116.967 298.103 117.07 297.515 117.07C296.759 117.07 296.087 116.911 295.499 116.594C294.921 116.267 294.468 115.819 294.141 115.25C293.815 114.681 293.651 114.037 293.651 113.318C293.651 112.599 293.805 111.955 294.113 111.386C294.431 110.817 294.86 110.373 295.401 110.056C295.952 109.739 296.568 109.58 297.249 109.58C297.931 109.58 298.542 109.739 299.083 110.056C299.625 110.373 300.049 110.817 300.357 111.386C300.665 111.946 300.819 112.59 300.819 113.318L300.805 113.626ZM297.249 110.434C296.54 110.434 295.943 110.663 295.457 111.12C294.981 111.568 294.711 112.156 294.645 112.884H299.867C299.802 112.156 299.527 111.568 299.041 111.12C298.565 110.663 297.968 110.434 297.249 110.434ZM311.374 113.192C312.372 113.425 312.872 114.027 312.872 114.998C312.872 115.642 312.634 116.137 312.158 116.482C311.682 116.827 310.972 117 310.03 117H306.684V109.636H309.932C310.772 109.636 311.43 109.799 311.906 110.126C312.382 110.453 312.62 110.919 312.62 111.526C312.62 111.927 312.508 112.273 312.284 112.562C312.069 112.842 311.766 113.052 311.374 113.192ZM307.65 112.912H309.862C310.431 112.912 310.865 112.805 311.164 112.59C311.472 112.375 311.626 112.063 311.626 111.652C311.626 111.241 311.472 110.933 311.164 110.728C310.865 110.523 310.431 110.42 309.862 110.42H307.65V112.912ZM309.988 116.216C310.622 116.216 311.098 116.113 311.416 115.908C311.733 115.703 311.892 115.381 311.892 114.942C311.892 114.503 311.747 114.181 311.458 113.976C311.168 113.761 310.711 113.654 310.086 113.654H307.65V116.216H309.988ZM136.022 131.636V139H135.028V132.518H130.408V139H129.414V131.636H136.022ZM145.288 135.626H139.128C139.184 136.391 139.478 137.012 140.01 137.488C140.542 137.955 141.214 138.188 142.026 138.188C142.483 138.188 142.903 138.109 143.286 137.95C143.668 137.782 144 137.539 144.28 137.222L144.84 137.866C144.513 138.258 144.102 138.557 143.608 138.762C143.122 138.967 142.586 139.07 141.998 139.07C141.242 139.07 140.57 138.911 139.982 138.594C139.403 138.267 138.95 137.819 138.624 137.25C138.297 136.681 138.134 136.037 138.134 135.318C138.134 134.599 138.288 133.955 138.596 133.386C138.913 132.817 139.342 132.373 139.884 132.056C140.434 131.739 141.05 131.58 141.732 131.58C142.413 131.58 143.024 131.739 143.566 132.056C144.107 132.373 144.532 132.817 144.84 133.386C145.148 133.946 145.302 134.59 145.302 135.318L145.288 135.626ZM141.732 132.434C141.022 132.434 140.425 132.663 139.94 133.12C139.464 133.568 139.193 134.156 139.128 134.884H144.35C144.284 134.156 144.009 133.568 143.524 133.12C143.048 132.663 142.45 132.434 141.732 132.434ZM153.06 131.636V139H152.066V135.934C151.217 136.307 150.381 136.494 149.56 136.494C148.673 136.494 147.983 136.293 147.488 135.892C146.993 135.481 146.746 134.87 146.746 134.058V131.636H147.74V134.002C147.74 134.553 147.917 134.973 148.272 135.262C148.627 135.542 149.117 135.682 149.742 135.682C150.433 135.682 151.207 135.5 152.066 135.136V131.636H153.06ZM158.417 131.58C159.378 131.58 160.115 131.823 160.629 132.308C161.142 132.784 161.399 133.493 161.399 134.436V139H160.447V137.852C160.223 138.235 159.891 138.533 159.453 138.748C159.023 138.963 158.51 139.07 157.913 139.07C157.091 139.07 156.438 138.874 155.953 138.482C155.467 138.09 155.225 137.572 155.225 136.928C155.225 136.303 155.449 135.799 155.897 135.416C156.354 135.033 157.077 134.842 158.067 134.842H160.405V134.394C160.405 133.759 160.227 133.279 159.873 132.952C159.518 132.616 159 132.448 158.319 132.448C157.852 132.448 157.404 132.527 156.975 132.686C156.545 132.835 156.177 133.045 155.869 133.316L155.421 132.574C155.794 132.257 156.242 132.014 156.765 131.846C157.287 131.669 157.838 131.58 158.417 131.58ZM158.067 138.286C158.627 138.286 159.107 138.16 159.509 137.908C159.91 137.647 160.209 137.273 160.405 136.788V135.584H158.095C156.835 135.584 156.205 136.023 156.205 136.9C156.205 137.329 156.368 137.67 156.695 137.922C157.021 138.165 157.479 138.286 158.067 138.286ZM169.225 132.518H166.439V139H165.445V132.518H162.659V131.636H169.225V132.518ZM170.662 131.636H171.656V137.488L176.57 131.636H177.452V139H176.458V133.148L171.558 139H170.662V131.636ZM183.965 131.636H184.959V137.488L189.873 131.636H190.755V139H189.761V133.148L184.861 139H183.965V131.636ZM201.958 135.192C202.956 135.425 203.456 136.027 203.456 136.998C203.456 137.642 203.218 138.137 202.742 138.482C202.266 138.827 201.556 139 200.614 139H197.268V131.636H200.516C201.356 131.636 202.014 131.799 202.49 132.126C202.966 132.453 203.204 132.919 203.204 133.526C203.204 133.927 203.092 134.273 202.868 134.562C202.653 134.842 202.35 135.052 201.958 135.192ZM198.234 134.912H200.446C201.015 134.912 201.449 134.805 201.748 134.59C202.056 134.375 202.21 134.063 202.21 133.652C202.21 133.241 202.056 132.933 201.748 132.728C201.449 132.523 201.015 132.42 200.446 132.42H198.234V134.912ZM200.572 138.216C201.206 138.216 201.682 138.113 202 137.908C202.317 137.703 202.476 137.381 202.476 136.942C202.476 136.503 202.331 136.181 202.042 135.976C201.752 135.761 201.295 135.654 200.67 135.654H198.234V138.216H200.572ZM207.787 131.58C208.524 131.58 209.187 131.743 209.775 132.07C210.372 132.387 210.839 132.831 211.175 133.4C211.52 133.969 211.693 134.609 211.693 135.318C211.693 136.027 211.52 136.671 211.175 137.25C210.839 137.819 210.372 138.267 209.775 138.594C209.187 138.921 208.524 139.084 207.787 139.084C207.171 139.084 206.606 138.991 206.093 138.804C205.58 138.608 205.146 138.328 204.791 137.964L205.379 137.376C206.004 137.964 206.793 138.258 207.745 138.258C208.277 138.258 208.758 138.146 209.187 137.922C209.626 137.698 209.98 137.385 210.251 136.984C210.531 136.583 210.694 136.135 210.741 135.64H206.807V134.884H210.727C210.624 134.147 210.298 133.549 209.747 133.092C209.196 132.625 208.529 132.392 207.745 132.392C206.793 132.392 206.004 132.686 205.379 133.274L204.791 132.7C205.146 132.336 205.58 132.061 206.093 131.874C206.606 131.678 207.171 131.58 207.787 131.58ZM217.353 131.818C218.034 131.818 218.641 131.972 219.173 132.28C219.714 132.579 220.134 133.003 220.433 133.554C220.732 134.095 220.881 134.716 220.881 135.416C220.881 136.135 220.722 136.774 220.405 137.334C220.097 137.885 219.663 138.314 219.103 138.622C218.543 138.93 217.899 139.084 217.171 139.084C215.948 139.084 215.001 138.655 214.329 137.796C213.657 136.937 213.321 135.752 213.321 134.24C213.321 132.663 213.62 131.454 214.217 130.614C214.824 129.774 215.766 129.205 217.045 128.906L220.349 128.15L220.517 129.06L217.409 129.774C216.354 130.007 215.58 130.423 215.085 131.02C214.59 131.608 214.32 132.481 214.273 133.638C214.572 133.069 214.987 132.625 215.519 132.308C216.051 131.981 216.662 131.818 217.353 131.818ZM217.199 138.258C217.712 138.258 218.17 138.141 218.571 137.908C218.982 137.665 219.299 137.329 219.523 136.9C219.756 136.471 219.873 135.985 219.873 135.444C219.873 134.903 219.761 134.427 219.537 134.016C219.313 133.605 218.996 133.288 218.585 133.064C218.184 132.831 217.722 132.714 217.199 132.714C216.676 132.714 216.21 132.831 215.799 133.064C215.398 133.288 215.08 133.605 214.847 134.016C214.623 134.427 214.511 134.903 214.511 135.444C214.511 135.985 214.623 136.471 214.847 136.9C215.08 137.329 215.402 137.665 215.813 137.908C216.224 138.141 216.686 138.258 217.199 138.258ZM222.574 134.772H226.242V135.64H222.574V134.772ZM235.526 138.132V140.778H234.588V139H227.994V140.778H227.056V138.132H227.476C227.97 138.104 228.306 137.74 228.484 137.04C228.661 136.34 228.782 135.36 228.848 134.1L228.946 131.636H234.378V138.132H235.526ZM229.758 134.156C229.711 135.201 229.622 136.065 229.492 136.746C229.361 137.418 229.128 137.88 228.792 138.132H233.384V132.518H229.842L229.758 134.156ZM237.463 131.636H238.457V137.488L243.371 131.636H244.253V139H243.259V133.148L238.359 139H237.463V131.636ZM250.535 135.164C251.058 135.285 251.459 135.495 251.739 135.794C252.028 136.093 252.173 136.457 252.173 136.886C252.173 137.315 252.024 137.698 251.725 138.034C251.436 138.37 251.039 138.631 250.535 138.818C250.031 138.995 249.476 139.084 248.869 139.084C248.337 139.084 247.814 139.009 247.301 138.86C246.788 138.701 246.34 138.473 245.957 138.174L246.293 137.432C246.629 137.684 247.021 137.88 247.469 138.02C247.917 138.16 248.37 138.23 248.827 138.23C249.508 138.23 250.064 138.104 250.493 137.852C250.932 137.591 251.151 137.241 251.151 136.802C251.151 136.41 250.974 136.107 250.619 135.892C250.264 135.668 249.779 135.556 249.163 135.556H247.903V134.828H249.107C249.658 134.828 250.101 134.725 250.437 134.52C250.773 134.305 250.941 134.021 250.941 133.666C250.941 133.274 250.75 132.966 250.367 132.742C249.994 132.518 249.504 132.406 248.897 132.406C248.104 132.406 247.32 132.607 246.545 133.008L246.265 132.238C247.142 131.781 248.052 131.552 248.995 131.552C249.555 131.552 250.059 131.636 250.507 131.804C250.964 131.963 251.319 132.191 251.571 132.49C251.832 132.789 251.963 133.134 251.963 133.526C251.963 133.899 251.832 134.231 251.571 134.52C251.319 134.809 250.974 135.024 250.535 135.164ZM256.964 131.58C257.925 131.58 258.662 131.823 259.176 132.308C259.689 132.784 259.946 133.493 259.946 134.436V139H258.994V137.852C258.77 138.235 258.438 138.533 258 138.748C257.57 138.963 257.057 139.07 256.46 139.07C255.638 139.07 254.985 138.874 254.5 138.482C254.014 138.09 253.772 137.572 253.772 136.928C253.772 136.303 253.996 135.799 254.444 135.416C254.901 135.033 255.624 134.842 256.614 134.842H258.952V134.394C258.952 133.759 258.774 133.279 258.42 132.952C258.065 132.616 257.547 132.448 256.866 132.448C256.399 132.448 255.951 132.527 255.522 132.686C255.092 132.835 254.724 133.045 254.416 133.316L253.968 132.574C254.341 132.257 254.789 132.014 255.312 131.846C255.834 131.669 256.385 131.58 256.964 131.58ZM256.614 138.286C257.174 138.286 257.654 138.16 258.056 137.908C258.457 137.647 258.756 137.273 258.952 136.788V135.584H256.642C255.382 135.584 254.752 136.023 254.752 136.9C254.752 137.329 254.915 137.67 255.242 137.922C255.568 138.165 256.026 138.286 256.614 138.286ZM262.592 131.636H263.586V137.488L268.5 131.636H269.382V139H268.388V133.148L263.488 139H262.592V131.636ZM265.938 130.572C265.303 130.572 264.799 130.413 264.426 130.096C264.052 129.779 263.861 129.331 263.852 128.752H264.566C264.575 129.116 264.706 129.41 264.958 129.634C265.21 129.849 265.536 129.956 265.938 129.956C266.339 129.956 266.666 129.849 266.918 129.634C267.179 129.41 267.314 129.116 267.324 128.752H268.038C268.028 129.331 267.832 129.779 267.45 130.096C267.076 130.413 266.572 130.572 265.938 130.572ZM272.23 131.636H273.224V134.898H277.858V131.636H278.852V139H277.858V135.752H273.224V139H272.23V131.636ZM288.118 135.626H281.958C282.014 136.391 282.308 137.012 282.84 137.488C283.372 137.955 284.044 138.188 284.856 138.188C285.313 138.188 285.733 138.109 286.116 137.95C286.498 137.782 286.83 137.539 287.11 137.222L287.67 137.866C287.343 138.258 286.932 138.557 286.438 138.762C285.952 138.967 285.416 139.07 284.828 139.07C284.072 139.07 283.4 138.911 282.812 138.594C282.233 138.267 281.78 137.819 281.454 137.25C281.127 136.681 280.964 136.037 280.964 135.318C280.964 134.599 281.118 133.955 281.426 133.386C281.743 132.817 282.172 132.373 282.714 132.056C283.264 131.739 283.88 131.58 284.562 131.58C285.243 131.58 285.854 131.739 286.396 132.056C286.937 132.373 287.362 132.817 287.67 133.386C287.978 133.946 288.132 134.59 288.132 135.318L288.118 135.626ZM284.562 132.434C283.852 132.434 283.255 132.663 282.77 133.12C282.294 133.568 282.023 134.156 281.958 134.884H287.18C287.114 134.156 286.839 133.568 286.354 133.12C285.878 132.663 285.28 132.434 284.562 132.434ZM290.402 139.07C290.197 139.07 290.019 138.995 289.87 138.846C289.73 138.697 289.66 138.515 289.66 138.3C289.66 138.085 289.73 137.908 289.87 137.768C290.019 137.619 290.197 137.544 290.402 137.544C290.607 137.544 290.785 137.619 290.934 137.768C291.083 137.908 291.158 138.085 291.158 138.3C291.158 138.515 291.083 138.697 290.934 138.846C290.785 138.995 290.607 139.07 290.402 139.07Z" fill="#999999"/>
</svg>
